<svg width="30" height="31" viewBox="0 0 30 31" fill="none" xmlns="http://www.w3.org/2000/svg">
<path fill-rule="evenodd" clip-rule="evenodd" d="M12.0026 7.30846C12.0026 7.30846 13.3934 7.01746 15 7.01746C16.6066 7.01746 17.9974 7.30846 17.9974 7.30846L18.5536 6.16114C18.671 5.91886 18.9295 5.77745 19.1934 5.82002C21.876 6.25266 24.376 7.6875 24.376 7.6875C24.376 7.6875 27.499 10.8125 27.499 21.8341C27.5002 22.0326 27.4079 22.2251 27.248 22.3406C25.1975 23.8215 22.7071 24.7941 21.7024 25.153C21.4361 25.2481 21.1445 25.1409 20.9927 24.9006L20.2896 23.7876C20.0971 23.483 20.1971 23.0777 20.5086 22.8997L21.978 22.0604L21.3836 21.5914C21.3836 21.5914 19.0061 23.0309 15 23.0309C10.9938 23.0309 8.61639 21.5914 8.61639 21.5914L8.02204 22.0604L9.4913 22.8997C9.80288 23.0777 9.90286 23.483 9.71039 23.7876L9.00726 24.9006C8.85545 25.1409 8.5638 25.2481 8.29756 25.153C7.29286 24.7941 4.80244 23.8215 2.75198 22.3406C2.59205 22.2251 2.49974 22.0326 2.50099 21.8341C2.50099 10.8125 5.62598 7.6875 5.62598 7.6875C5.62598 7.6875 8.12598 6.25234 10.8066 5.82002C11.0705 5.77745 11.3289 5.91886 11.4464 6.16114L12.0026 7.30846ZM21.5635 16.4375C21.5635 17.8182 20.5841 18.9375 19.376 18.9375C18.1679 18.9375 17.1885 17.8182 17.1885 16.4375C17.1885 15.0567 18.1679 13.9375 19.376 13.9375C20.5841 13.9375 21.5635 15.0567 21.5635 16.4375ZM10.626 18.9375C11.8341 18.9375 12.8135 17.8182 12.8135 16.4375C12.8135 15.0567 11.8341 13.9375 10.626 13.9375C9.41786 13.9375 8.43848 15.0567 8.43848 16.4375C8.43848 17.8182 9.41786 18.9375 10.626 18.9375Z" fill="white" fill-opacity="0.88"/>
</svg>
