<svg width="30" height="31" viewBox="0 0 30 31" fill="none" xmlns="http://www.w3.org/2000/svg">
<path fill-rule="evenodd" clip-rule="evenodd" d="M15.0715 2.6875C17.8099 2.68749 19.9608 2.68748 21.64 2.91324C23.3608 3.1446 24.7261 3.62839 25.7989 4.70114C26.8716 5.77389 27.3554 7.13921 27.5868 8.86003C27.8125 10.5393 27.8125 12.6901 27.8125 15.4285V15.5715C27.8125 18.3099 27.8125 20.4608 27.5868 22.14C27.3554 23.8608 26.8716 25.2261 25.7989 26.2989C24.7261 27.3716 23.3608 27.8554 21.64 28.0868C19.9608 28.3125 17.8099 28.3125 15.0715 28.3125H14.9285C12.1901 28.3125 10.0393 28.3125 8.36003 28.0868C6.63921 27.8554 5.27389 27.3716 4.20114 26.2989C3.1284 25.2261 2.6446 23.8608 2.41324 22.14C2.18748 20.4608 2.18749 18.3099 2.1875 15.5715V15.4285C2.18749 12.6901 2.18748 10.5393 2.41324 8.86003C2.6446 7.13921 3.1284 5.77389 4.20114 4.70114C5.27389 3.62839 6.63921 3.1446 8.36003 2.91324C10.0393 2.68748 12.1901 2.68749 14.9285 2.6875H15.0715ZM20.625 15.5C20.625 18.6066 18.1066 21.125 15 21.125C11.8934 21.125 9.375 18.6066 9.375 15.5C9.375 12.3934 11.8934 9.875 15 9.875C18.1066 9.875 20.625 12.3934 20.625 15.5ZM21.8904 9.875C22.5776 9.875 23.1347 9.31536 23.1347 8.625C23.1347 7.93465 22.5776 7.375 21.8904 7.375H21.8791C21.1919 7.375 20.6347 7.93465 20.6347 8.625C20.6347 9.31535 21.1919 9.875 21.8791 9.875H21.8904Z" fill="white" fill-opacity="0.88"/>
</svg>
